<?xml version="1.0" encoding="UTF-8"?>
<svg width="21px" height="21px" viewBox="0 0 21 21" version="1.1" xmlns="http://www.w3.org/2000/svg" xmlns:xlink="http://www.w3.org/1999/xlink">
    <!-- Generator: Sketch 63 (92445) - https://sketch.com -->
    <title>11</title>
    <desc>Created with Sketch.</desc>
    <g id="页面1" stroke="none" stroke-width="1" fill="none" fill-rule="evenodd">
        <g id="jiexiantu" transform="translate(-30.000000, -188.000000)" fill="#FF0000" fill-rule="nonzero">
            <g id="编组" transform="translate(29.000000, 29.000000)">
                <path d="M12.0041766,159 L12.0040215,163.012 L12.1934834,163.028934 C15.3832222,163.368995 17.8814298,166.028396 17.9959003,169.296781 L18,169.53125 C18,172.906151 15.4591684,175.685408 12.1934834,176.033566 L12.0040215,176.049 L12.0041766,180 L10.9958234,180 L10.9958234,175.070313 L11.5,175.070313 C14.5318387,175.070313 16.9916468,172.592765 16.9916468,169.53125 C16.9916468,166.693748 14.8786409,164.357882 12.1555982,164.03124 L12.0040215,164.016 L12.0041766,169.971985 L5,170.03587 L5,169.53125 C5,166.156349 7.5408316,163.377092 10.8065166,163.028934 L10.9956683,163.011 L10.9958234,159 L12.0041766,159 Z M10.9956683,164.016 L10.8444018,164.03124 C8.33633612,164.332094 6.34578789,166.33745 6.04712279,168.869331 L6.03154535,169.026 L10.9956683,168.981 L10.9956683,164.016 Z" id="11"></path>
            </g>
        </g>
    </g>
</svg>