<?xml version="1.0" encoding="UTF-8"?>
<svg width="21px" height="21px" viewBox="0 0 21 21" version="1.1" xmlns="http://www.w3.org/2000/svg" xmlns:xlink="http://www.w3.org/1999/xlink">
    <!-- Generator: Sketch 63 (92445) - https://sketch.com -->
    <title>14</title>
    <desc>Created with Sketch.</desc>
    <g id="页面1" stroke="none" stroke-width="1" fill="none" fill-rule="evenodd">
        <g id="jiexiantu" transform="translate(-316.000000, -189.000000)" fill="#00FF00" fill-rule="nonzero">
            <g id="编组" transform="translate(29.000000, 29.000000)">
                <g id="14" transform="translate(293.000000, 160.000000)">
                    <path d="M4.5,6 C2.01984562,6 0,8.0091586 0,10.5 C0,12.9908414 2.01984562,15 4.5,15 C6.98015438,15 9,12.9908414 9,10.5 C9,8.0091586 6.98015438,6 4.5,6 Z M4.5,7 C6.438343,7 8,8.57287401 8,10.5 C8,12.427126 6.438343,14 4.5,14 C2.561657,14 1,12.427126 1,10.5 C1,8.57287401 2.561657,7 4.5,7 Z" id="椭圆形"></path>
                    <polygon id="路径" points="5 0 5 21 4 21 4 0"></polygon>
                </g>
            </g>
        </g>
    </g>
</svg>