<?xml version="1.0" encoding="UTF-8"?>
<svg width="21px" height="21px" viewBox="0 0 21 21" version="1.1" xmlns="http://www.w3.org/2000/svg" xmlns:xlink="http://www.w3.org/1999/xlink">
    <!-- Generator: Sketch 63 (92445) - https://sketch.com -->
    <title>16</title>
    <desc>Created with Sketch.</desc>
    <g id="页面1" stroke="none" stroke-width="1" fill="none" fill-rule="evenodd">
        <g id="jiexiantu" transform="translate(-31.000000, -270.000000)" fill="#00FF00" fill-rule="nonzero">
            <g id="编组" transform="translate(29.000000, 29.000000)">
                <g id="16" transform="translate(2.567212, 241.822206)">
                    <polygon id="路径" points="4.67342932 8.55447224 9.82671833 -1.1304089e-13 14.9722979 8.55473515 14.1932711 9.02331123 9.82551173 1.76239981 5.4521396 9.02357413"></polygon>
                    <polygon id="路径" points="15.8109858 11.8026869 16.6127649 11.3742051 19.6538099 17.0646365 10.6264208 17.0646365 10.6264208 16.1555456 18.1373299 16.1551271"></polygon>
                    <polygon id="路径" points="3.03256278 11.3746571 3.83482431 11.8022349 1.51460264 16.1551271 8.75519979 16.1551271 8.75519979 17.064218 2.36578434e-13 17.0646365"></polygon>
                    <polygon id="路径" points="1.44987133 8.96616302 5.26078042 12.4582265 4.64660668 13.1284779 0.835697584 9.63641438"></polygon>
                    <polygon id="路径" points="3.3549805 6.93842984 7.16588959 10.4232783 6.5524066 11.094162 2.7414975 7.6093135"></polygon>
                    <polygon id="路径" points="18.1593339 8.96616302 18.7735077 9.63641438 14.9625986 13.1284779 14.3484249 12.4582265"></polygon>
                    <polygon id="路径" points="16.2542248 6.93842984 16.8677078 7.6093135 13.0567987 11.094162 12.4433157 10.4232783"></polygon>
                    <polygon id="路径" points="10.4327879 14.1777939 11.4327879 14.1777939 11.4327879 20.1777939 10.4327879 20.1777939"></polygon>
                    <polygon id="路径" points="8.43278795 14.1777939 9.43278795 14.1777939 9.43278795 20.1777939 8.43278795 20.1777939"></polygon>
                </g>
            </g>
        </g>
    </g>
</svg>