<?xml version="1.0" encoding="UTF-8"?>
<svg width="21px" height="21px" viewBox="0 0 21 21" version="1.1" xmlns="http://www.w3.org/2000/svg" xmlns:xlink="http://www.w3.org/1999/xlink">
    <!-- Generator: Sketch 63 (92445) - https://sketch.com -->
    <title>17</title>
    <desc>Created with Sketch.</desc>
    <g id="页面1" stroke="none" stroke-width="1" fill="none" fill-rule="evenodd">
        <g id="jiexiantu" transform="translate(-124.000000, -269.000000)" fill="#FF0000" fill-rule="nonzero">
            <g id="编组" transform="translate(29.000000, 29.000000)">
                <g id="17" transform="translate(101.000000, 241.000000)">
                    <path d="M4.5,5.5 C2.01471863,5.5 0,7.51471863 0,10 C0,12.4852814 2.01471863,14.5 4.5,14.5 C6.98528137,14.5 9,12.4852814 9,10 C9,7.51471863 6.98528137,5.5 4.5,5.5 Z M4.5,6.5 C6.43299662,6.5 8,8.06700338 8,10 C8,11.9329966 6.43299662,13.5 4.5,13.5 C2.56700338,13.5 1,11.9329966 1,10 C1,8.06700338 2.56700338,6.5 4.5,6.5 Z" id="椭圆形"></path>
                    <path d="M4.5,-0.5 C2.01471863,-0.5 2.23820962e-13,1.51471863 2.23820962e-13,4 C2.23820962e-13,6.48528137 2.01471863,8.5 4.5,8.5 C6.98528137,8.5 9,6.48528137 9,4 C9,1.51471863 6.98528137,-0.5 4.5,-0.5 Z M4.5,0.5 C6.43299662,0.5 8,2.06700338 8,4 C8,5.93299662 6.43299662,7.5 4.5,7.5 C2.56700338,7.5 1,5.93299662 1,4 C1,2.06700338 2.56700338,0.5 4.5,0.5 Z" id="椭圆形"></path>
                    <polygon id="路径" points="5 14 5 20 4 20 4 14"></polygon>
                </g>
            </g>
        </g>
    </g>
</svg>