<?xml version="1.0" encoding="UTF-8"?>
<svg width="21px" height="21px" viewBox="0 0 21 21" version="1.1" xmlns="http://www.w3.org/2000/svg" xmlns:xlink="http://www.w3.org/1999/xlink">
    <!-- Generator: Sketch 63 (92445) - https://sketch.com -->
    <title>20</title>
    <desc>Created with Sketch.</desc>
    <g id="页面1" stroke="none" stroke-width="1" fill="none" fill-rule="evenodd">
        <g id="jiexiantu" transform="translate(-408.000000, -269.000000)" fill="#FF0000" fill-rule="nonzero">
            <g id="编组" transform="translate(29.000000, 29.000000)">
                <g id="20" transform="translate(380.000000, 240.000000)">
                    <path d="M9.48654084,6.30943972 C6.99186393,6.30943972 4.97533394,8.38367104 4.97533394,10.935424 C4.97533394,13.4871769 6.99186393,15.5614082 9.48654084,15.5614082 C11.9812177,15.5614082 13.9977477,13.4871769 13.9977477,10.935424 C13.9977477,8.38367104 11.9812177,6.30943972 9.48654084,6.30943972 Z M9.48654084,7.30943972 C11.4225207,7.30943972 12.9977477,8.92974055 12.9977477,10.935424 C12.9977477,12.9411074 11.4225207,14.5614082 9.48654084,14.5614082 C7.55056095,14.5614082 5.97533394,12.9411074 5.97533394,10.935424 C5.97533394,8.92974055 7.55056095,7.30943972 9.48654084,7.30943972 Z" id="椭圆形"></path>
                    <path d="M9.48654084,0.577156259 C6.99186393,0.577156259 4.97533394,2.65138758 4.97533394,5.20314051 C4.97533394,7.75489344 6.99186393,9.82912476 9.48654084,9.82912476 C11.9812177,9.82912476 13.9977477,7.75489344 13.9977477,5.20314051 C13.9977477,2.65138758 11.9812177,0.577156259 9.48654084,0.577156259 Z M9.48654084,1.57715626 C11.4225207,1.57715626 12.9977477,3.19745708 12.9977477,5.20314051 C12.9977477,7.20882394 11.4225207,8.82912476 9.48654084,8.82912476 C7.55056095,8.82912476 5.97533394,7.20882394 5.97533394,5.20314051 C5.97533394,3.19745708 7.55056095,1.57715626 9.48654084,1.57715626 Z" id="椭圆形"></path>
                    <path d="M14.4830926,3.30156571 C11.9884157,3.30156571 9.97188567,5.37579703 9.97188567,7.92754996 C9.97188567,10.4793029 11.9884157,12.5535342 14.4830926,12.5535342 C16.9777695,12.5535342 18.9942995,10.4793029 18.9942995,7.92754996 C18.9942995,5.37579703 16.9777695,3.30156571 14.4830926,3.30156571 Z M14.4830926,4.30156571 C16.4190725,4.30156571 17.9942995,5.92186653 17.9942995,7.92754996 C17.9942995,9.93323339 16.4190725,11.5535342 14.4830926,11.5535342 C12.5471127,11.5535342 10.9718857,9.93323339 10.9718857,7.92754996 C10.9718857,5.92186653 12.5471127,4.30156571 14.4830926,4.30156571 Z" id="椭圆形"></path>
                    <path d="M4.55205808,3.30156571 C2.05738117,3.30156571 0.0408511856,5.37579703 0.0408511856,7.92754996 C0.0408511856,10.4793029 2.05738117,12.5535342 4.55205808,12.5535342 C7.04673499,12.5535342 9.06326498,10.4793029 9.06326498,7.92754996 C9.06326498,5.37579703 7.04673499,3.30156571 4.55205808,3.30156571 Z M4.55205808,4.30156571 C6.48803797,4.30156571 8.06326498,5.92186653 8.06326498,7.92754996 C8.06326498,9.93323339 6.48803797,11.5535342 4.55205808,11.5535342 C2.6160782,11.5535342 1.04085119,9.93323339 1.04085119,7.92754996 C1.04085119,5.92186653 2.6160782,4.30156571 4.55205808,4.30156571 Z" id="椭圆形"></path>
                    <polygon id="路径" points="10 15 10 21 9 21 9 15"></polygon>
                </g>
            </g>
        </g>
    </g>
</svg>