<?xml version="1.0" encoding="UTF-8"?>
<svg width="21px" height="21px" viewBox="0 0 21 21" version="1.1" xmlns="http://www.w3.org/2000/svg" xmlns:xlink="http://www.w3.org/1999/xlink">
    <!-- Generator: Sketch 63 (92445) - https://sketch.com -->
    <title>24</title>
    <desc>Created with Sketch.</desc>
    <g id="页面1" stroke="none" stroke-width="1" fill="none" fill-rule="evenodd">
        <g id="jiexiantu" transform="translate(-318.000000, -349.000000)" fill="#00FF00" fill-rule="nonzero">
            <g id="编组" transform="translate(29.000000, 29.000000)">
                <g id="24" transform="translate(293.000000, 320.000000)">
                    <path d="M6.57650334,6.96648299 C9.10442736,6.96648299 11.1847106,8.87885602 11.4974206,11.3506506 L11.501888,11.403608 L13.0841956,11.403983 L13.0841956,21.044608 L12.0841956,21.044608 L12.083888,12.403608 L11.520888,12.403608 L11.5180145,12.4512225 C11.3455612,14.3959372 10.0739451,16.0570979 8.26952837,16.7221898 L8.05899417,16.7944703 L7.40965078,17.0012593 L7.39014223,11.403983 L10.494888,11.403608 C10.221674,9.52127191 8.6743203,8.06631882 6.7742796,7.97141117 L6.57650334,7.96648299 C4.58437761,7.96648299 2.94029993,9.45231732 2.65784056,11.4004483 L2.65288795,11.435608 L5.79958026,11.4257582 L5.79958026,17.0146015 L5.15515427,16.8201699 C3.28706306,16.2565427 1.92303072,14.6276077 1.6608086,12.6825122 L1.63388795,12.438608 L1.09188795,12.440608 L1.09188795,21.044608 L0.091887951,21.044608 L0.091887951,11.4447023 L1.64588795,11.438608 L1.65554265,11.3495971 C1.95900424,8.94512785 3.9289382,7.07597036 6.36076257,6.97112419 L6.57650334,6.96648299 Z M4.79888795,12.428608 L2.63788795,12.435608 L2.66054276,12.609577 C2.85080373,13.8762463 3.6228575,14.9674937 4.71450034,15.5588235 L4.79888795,15.601608 L4.79888795,12.428608 Z M10.516888,12.403608 L8.39288795,12.403608 L8.40388795,15.566608 L8.50328068,15.5151487 C9.55194881,14.921456 10.2900988,13.87011 10.4861565,12.6498398 L10.516888,12.403608 Z" id="路径"></path>
                    <polygon id="路径" points="7 -1.11466392e-13 7 7 6 7 6 -1.11466392e-13"></polygon>
                </g>
            </g>
        </g>
    </g>
</svg>