<?xml version="1.0" encoding="UTF-8"?>
<svg width="21px" height="21px" viewBox="0 0 21 21" version="1.1" xmlns="http://www.w3.org/2000/svg" xmlns:xlink="http://www.w3.org/1999/xlink">
    <!-- Generator: Sketch 63 (92445) - https://sketch.com -->
    <title>3</title>
    <desc>Created with Sketch.</desc>
    <g id="页面1" stroke="none" stroke-width="1" fill="none" fill-rule="evenodd">
        <g id="jiexiantu" transform="translate(-221.000000, -29.000000)" fill="#FF0000" fill-rule="nonzero">
            <g id="编组" transform="translate(29.000000, 29.000000)">
                <g id="3" transform="translate(198.000000, 0.000000)">
                    <path d="M4.5,8 C2.01133591,8 0,10.0179287 0,12.5 C0,14.9820713 2.01133591,17 4.5,17 C6.98866409,17 9,14.9820713 9,12.5 C9,10.0179287 6.98866409,8 4.5,8 Z M4.5,9.125 C6.36057616,9.125 7.875,10.6328513 7.875,12.5 C7.875,14.3671487 6.36057616,15.875 4.5,15.875 C2.63942384,15.875 1.125,14.3671487 1.125,12.5 C1.125,10.6328513 2.63942384,9.125 4.5,9.125 Z" id="椭圆形"></path>
                    <path d="M4.5,4 C2.01133591,4 0,6.01792865 0,8.5 C0,10.9820713 2.01133591,13 4.5,13 C6.98866409,13 9,10.9820713 9,8.5 C9,6.01792865 6.98866409,4 4.5,4 Z M4.5,5.125 C6.36057616,5.125 7.875,6.63285129 7.875,8.5 C7.875,10.3671487 6.36057616,11.875 4.5,11.875 C2.63942384,11.875 1.125,10.3671487 1.125,8.5 C1.125,6.63285129 2.63942384,5.125 4.5,5.125 Z" id="椭圆形"></path>
                    <polygon id="路径" points="5 0 5 5 4 5 4 0"></polygon>
                    <polygon id="路径" points="5 17 5 21 4 21 4 17"></polygon>
                </g>
            </g>
        </g>
    </g>
</svg>