<?xml version="1.0" encoding="UTF-8"?>
<svg width="21px" height="21px" viewBox="0 0 21 21" version="1.1" xmlns="http://www.w3.org/2000/svg" xmlns:xlink="http://www.w3.org/1999/xlink">
    <!-- Generator: Sketch 63 (92445) - https://sketch.com -->
    <title>12</title>
    <desc>Created with Sketch.</desc>
    <g id="页面1" stroke="none" stroke-width="1" fill="none" fill-rule="evenodd">
        <g id="jiexiantu" transform="translate(-123.000000, -189.000000)" fill="#00FF00" fill-rule="nonzero">
            <g id="编组" transform="translate(29.000000, 29.000000)">
                <path d="M105.004177,160 L105.004021,164.012 L105.193483,164.028934 C108.383222,164.368995 110.88143,167.028396 110.9959,170.296781 L111,170.53125 C111,173.906151 108.459168,176.685408 105.193483,177.033566 L105.004021,177.049 L105.004177,181 L103.995823,181 L103.995823,176.070313 L104.5,176.070313 C107.531839,176.070313 109.991647,173.592765 109.991647,170.53125 C109.991647,167.693748 107.878641,165.357882 105.155598,165.03124 L105.004021,165.016 L105.004177,170.971985 L98,171.03587 L98,170.53125 C98,167.156349 100.540832,164.377092 103.806517,164.028934 L103.995668,164.011 L103.995823,160 L105.004177,160 Z M103.995668,165.016 L103.844402,165.03124 C101.336336,165.332094 99.3457879,167.33745 99.0471228,169.869331 L99.0315453,170.026 L103.995668,169.981 L103.995668,165.016 Z" id="12"></path>
            </g>
        </g>
    </g>
</svg>