<?xml version="1.0" encoding="UTF-8"?>
<svg width="21px" height="21px" viewBox="0 0 21 21" version="1.1" xmlns="http://www.w3.org/2000/svg" xmlns:xlink="http://www.w3.org/1999/xlink">
    <!-- Generator: Sketch 63 (92445) - https://sketch.com -->
    <title>5</title>
    <desc>Created with Sketch.</desc>
    <g id="页面1" stroke="none" stroke-width="1" fill="none" fill-rule="evenodd">
        <g id="jiexiantu" transform="translate(-414.000000, -29.000000)" fill="#FF0000" fill-rule="nonzero">
            <g id="编组" transform="translate(29.000000, 29.000000)">
                <g id="5" transform="translate(392.500000, 0.000000)">
                    <polygon id="路径" points="1.95769903 7.79922552 3.326 14.0078125 3.326 21 2.626 21 2.63430097 14.083587 1.27430097 7.95077448"></polygon>
                    <polygon id="路径" points="2.22203036 6.39950164 4.21403036 8.36825164 3.72196964 8.86612336 1.72996964 6.89737336"></polygon>
                    <polygon id="路径" points="3.72196964 6.39950164 4.21403036 6.89737336 2.22203036 8.86612336 1.72996964 8.36825164"></polygon>
                    <polygon id="路径" points="3.32199931 -0.000696989407 3.33719931 7.63211551 2.63720069 7.63350949 2.62200069 0.000696989405"></polygon>
                    <polygon id="路径" points="3.2225228 1.73592679 5.2145228 3.71248929 4.7214772 4.20938571 2.7294772 2.23282321"></polygon>
                    <polygon id="路径" points="2.7774772 1.73592679 3.2705228 2.23282321 1.2785228 4.20938571 0.785477205 3.71248929"></polygon>
                    <polygon id="路径" points="3.2225228 2.94686429 5.2145228 4.92342679 4.7214772 5.42032321 2.7294772 3.44376071"></polygon>
                    <polygon id="路径" points="2.7774772 2.94686429 3.2705228 3.44376071 1.2785228 5.42032321 0.785477205 4.92342679"></polygon>
                    <polygon id="路径" points="4.7214772 16.8531143 5.2145228 17.3500107 3.2225228 19.3265732 2.7294772 18.8296768"></polygon>
                    <polygon id="路径" points="1.2785228 16.8531143 3.2705228 18.8296768 2.7774772 19.3265732 0.785477205 17.3500107"></polygon>
                    <polygon id="路径" points="4.7214772 15.6499893 5.2145228 16.1468857 3.2225228 18.1234482 2.7294772 17.6265518"></polygon>
                    <polygon id="路径" points="1.2785228 15.6499893 3.2705228 17.6265518 2.7774772 18.1234482 0.785477205 16.1468857"></polygon>
                </g>
            </g>
        </g>
    </g>
</svg>