<?xml version="1.0" encoding="UTF-8"?>
<svg width="21px" height="21px" viewBox="0 0 21 21" version="1.1" xmlns="http://www.w3.org/2000/svg" xmlns:xlink="http://www.w3.org/1999/xlink">
    <!-- Generator: Sketch 63 (92445) - https://sketch.com -->
    <title>6</title>
    <desc>Created with Sketch.</desc>
    <g id="页面1" stroke="none" stroke-width="1" fill="none" fill-rule="evenodd">
        <g id="jiexiantu" transform="translate(-30.000000, -109.000000)" fill="#00FF00" fill-rule="nonzero">
            <g id="编组" transform="translate(29.000000, 29.000000)">
                <g id="6" transform="translate(9.500000, 80.000000)">
                    <polygon id="路径" points="0.957699031 7.79922552 2.326 14.0078125 2.326 21 1.626 21 1.63430097 14.083587 0.274300969 7.95077448"></polygon>
                    <polygon id="路径" points="1.22203036 6.39950164 3.21403036 8.36825164 2.72196964 8.86612336 0.729969641 6.89737336"></polygon>
                    <polygon id="路径" points="2.72196964 6.39950164 3.21403036 6.89737336 1.22203036 8.86612336 0.729969641 8.36825164"></polygon>
                    <polygon id="路径" points="2.32199931 -0.000696989406 2.33719931 7.63211551 1.63720069 7.63350949 1.62200069 0.000696989406"></polygon>
                    <polygon id="路径" points="2.2225228 1.73592679 4.2145228 3.71248929 3.7214772 4.20938571 1.7294772 2.23282321"></polygon>
                    <polygon id="路径" points="1.7774772 1.73592679 2.2705228 2.23282321 0.278522795 4.20938571 -0.214522795 3.71248929"></polygon>
                    <polygon id="路径" points="2.2225228 2.94686429 4.2145228 4.92342679 3.7214772 5.42032321 1.7294772 3.44376071"></polygon>
                    <polygon id="路径" points="1.7774772 2.94686429 2.2705228 3.44376071 0.278522795 5.42032321 -0.214522795 4.92342679"></polygon>
                    <polygon id="路径" points="3.7214772 16.8531143 4.2145228 17.3500107 2.2225228 19.3265732 1.7294772 18.8296768"></polygon>
                    <polygon id="路径" points="0.278522795 16.8531143 2.2705228 18.8296768 1.7774772 19.3265732 -0.214522795 17.3500107"></polygon>
                    <polygon id="路径" points="3.7214772 15.6499893 4.2145228 16.1468857 2.2225228 18.1234482 1.7294772 17.6265518"></polygon>
                    <polygon id="路径" points="0.278522795 15.6499893 2.2705228 17.6265518 1.7774772 18.1234482 -0.214522795 16.1468857"></polygon>
                </g>
            </g>
        </g>
    </g>
</svg>