<?xml version="1.0" encoding="UTF-8"?>
<svg width="21px" height="21px" viewBox="0 0 21 21" version="1.1" xmlns="http://www.w3.org/2000/svg" xmlns:xlink="http://www.w3.org/1999/xlink">
    <!-- Generator: Sketch 63 (92445) - https://sketch.com -->
    <title>9</title>
    <desc>Created with Sketch.</desc>
    <g id="页面1" stroke="none" stroke-width="1" fill="none" fill-rule="evenodd">
        <g id="jiexiantu" transform="translate(-318.000000, -108.000000)" fill="#00FF00" fill-rule="nonzero">
            <g id="编组" transform="translate(29.000000, 29.000000)">
                <g id="9" transform="translate(292.500000, 80.000000)">
                    <path d="M6.93076923,4.72529644 C4.38140062,4.72529644 2.32307692,6.86829811 2.32307692,9.50197628 C2.32307692,12.1356545 4.38140062,14.2786561 6.93076923,14.2786561 C9.48013784,14.2786561 11.5384615,12.1356545 11.5384615,9.50197628 C11.5384615,6.86829811 9.48013784,4.72529644 6.93076923,4.72529644 Z M6.93076923,5.72529644 C8.91863226,5.72529644 10.5384615,7.41176435 10.5384615,9.50197628 C10.5384615,11.5921882 8.91863226,13.2786561 6.93076923,13.2786561 C4.94290621,13.2786561 3.32307692,11.5921882 3.32307692,9.50197628 C3.32307692,7.41176435 4.94290621,5.72529644 6.93076923,5.72529644 Z" id="椭圆形"></path>
                    <path d="M4.11538462,-0.484189723 C1.566016,-0.484189723 -0.492307692,1.65881194 -0.492307692,4.29249012 C-0.492307692,6.92616829 1.566016,9.06916996 4.11538462,9.06916996 C6.66475323,9.06916996 8.72307692,6.92616829 8.72307692,4.29249012 C8.72307692,1.65881194 6.66475323,-0.484189723 4.11538462,-0.484189723 Z M4.11538462,0.515810277 C6.10324764,0.515810277 7.72307692,2.20227818 7.72307692,4.29249012 C7.72307692,6.38270206 6.10324764,8.06916996 4.11538462,8.06916996 C2.12752159,8.06916996 0.507692308,6.38270206 0.507692308,4.29249012 C0.507692308,2.20227818 2.12752159,0.515810277 4.11538462,0.515810277 Z" id="椭圆形"></path>
                    <path d="M9.88461538,-0.484189723 C7.33524677,-0.484189723 5.27692308,1.65881194 5.27692308,4.29249012 C5.27692308,6.92616829 7.33524677,9.06916996 9.88461538,9.06916996 C12.433984,9.06916996 14.4923077,6.92616829 14.4923077,4.29249012 C14.4923077,1.65881194 12.433984,-0.484189723 9.88461538,-0.484189723 Z M9.88461538,0.515810277 C11.8724784,0.515810277 13.4923077,2.20227818 13.4923077,4.29249012 C13.4923077,6.38270206 11.8724784,8.06916996 9.88461538,8.06916996 C7.89675236,8.06916996 6.27692308,6.38270206 6.27692308,4.29249012 C6.27692308,2.20227818 7.89675236,0.515810277 9.88461538,0.515810277 Z" id="椭圆形"></path>
                    <polygon id="路径" points="7.5 14 7.5 20 6.5 20 6.5 14"></polygon>
                </g>
            </g>
        </g>
    </g>
</svg>