<?xml version="1.0" encoding="utf-8"?>
<!-- Generator: Adobe Illustrator 19.0.0, SVG Export Plug-In . SVG Version: 6.00 Build 0)  -->
<svg version="1.1" id="indicatorLight_1" xmlns="http://www.w3.org/2000/svg" xmlns:xlink="http://www.w3.org/1999/xlink" x="0px" y="0px"  width="64px" height="64px"
	 viewBox="0 0 200 200" style="enable-background:new 0 0 200 200;" xml:space="preserve">
<style type="text/css">
</style>
<g id="XMLID_13_">
	<circle id="XMLID_20_" style="fill:#EEEEEE;;" cx="100" cy="100" r="100"/>
	<path id="XMLID_4_" style="fill:#CCCCCC;" d="M100,2c54,0,98,44,98,98s-44,98-98,98S2,154,2,100S46,2,100,2 M100,0C44.8,0,0,44.8,0,100
		s44.8,100,100,100s100-44.8,100-100S155.2,0,100,0L100,0z"/>
</g>
<g id="XMLID_2_">
	<defs>
		<circle id="switch-off" class="canChangeFill" style="fill:#FF0000;" cx="100" cy="100" r="80"/>
		<circle id="switch-on" class="canChangeFill" style="fill:#13FF00;" cx="100" cy="100" r="80"/>
	</defs>
	<use id="dynamic-switch" href="#switch-off" />
</g>
<g id="XMLID_7_">
	<radialGradient id="XMLID_3_" cx="100" cy="100" r="80" gradientUnits="userSpaceOnUse">
		<stop  offset="0" style="stop-color:#000000;stop-opacity:0"/>
		<stop  offset="0.8587" style="stop-color:#000000;stop-opacity:0.2576"/>
		<stop  offset="1" style="stop-color:#000000;stop-opacity:0.3"/>
	</radialGradient>
	<circle id="XMLID_12_" style="fill:url(#XMLID_3_);" cx="100" cy="100" r="80"/>
	<path id="XMLID_6_" style="fill:#999999;" d="M100,21c43.6,0,79,35.4,79,79s-35.4,79-79,79s-79-35.4-79-79S56.4,21,100,21 M100,20
		c-44.2,0-80,35.8-80,80s35.8,80,80,80s80-35.8,80-80S144.2,20,100,20L100,20z"/>
</g>
<path id="XMLID_5_" style="fill:#FFFFFF;" d="M37.3,82c0,0,11.4-8.3,28.2-5.1c0,0,1.1-15.9,22.8-20.2c0,0-7.1-9.4-5.1-18.4
	C83.3,38.3,50.8,43.8,37.3,82z"/>
</svg>
